<svg xmlns="http://www.w3.org/2000/svg" width="58" height="58" viewBox="0 0 58 58">
  <defs>
    <style>
      .cls-1 {
        fill: #fff;
        fill-rule: evenodd;
      }
    </style>
  </defs>
  <g id="グループ_6" data-name="グループ 6" transform="translate(-402 -844)">
    <g id="グループ_3" data-name="グループ 3">
      <rect id="長方形_4" data-name="長方形 4" width="58" height="58" rx="7" transform="translate(402 844)"/>
    </g>
    <path id="パス_2" data-name="パス 2" class="cls-1" d="M304.124,58.431a13.9,13.9,0,0,0-4.4,27.1c.695.128.95-.3.95-.669,0-.331-.013-1.427-.019-2.589-3.868.841-4.684-1.64-4.684-1.64a3.683,3.683,0,0,0-1.544-2.034c-1.261-.863.1-.845.1-.845a2.922,2.922,0,0,1,2.131,1.433,2.96,2.96,0,0,0,4.046,1.156,2.962,2.962,0,0,1,.883-1.859c-3.088-.351-6.334-1.544-6.334-6.871a5.381,5.381,0,0,1,1.433-3.732,5,5,0,0,1,.135-3.68s1.168-.373,3.824,1.425a13.182,13.182,0,0,1,6.963,0c2.654-1.8,3.82-1.425,3.82-1.425a4.99,4.99,0,0,1,.136,3.68,5.37,5.37,0,0,1,1.431,3.732c0,5.34-3.253,6.516-6.349,6.86a3.324,3.324,0,0,1,.943,2.575c0,1.86-.016,3.358-.016,3.815,0,.37.25.8.955.667a13.905,13.905,0,0,0-4.4-27.095Z" transform="translate(126.438 800.782)"/>
  </g>
</svg>
