<svg xmlns="http://www.w3.org/2000/svg" width="58" height="58" viewBox="0 0 58 58">
  <defs>
    <style>
      .cls-1 {
        fill: #fff;
      }
    </style>
  </defs>
  <g id="グループ_2" data-name="グループ 2" transform="translate(-334 -844)">
    <rect id="長方形_3" data-name="長方形 3" width="58" height="58" rx="7" transform="translate(334 844)"/>
    <g id="Logo_FIXED" data-name="Logo — FIXED" transform="translate(349.221 862.213)">
      <path id="Logo_FIXED-2" data-name="Logo — FIXED" class="cls-1" d="M83.422,119.788a15.166,15.166,0,0,0,15.632-14.932c0-.227,0-.453-.016-.678a10.915,10.915,0,0,0,2.741-2.717,11.37,11.37,0,0,1-3.155.826,5.317,5.317,0,0,0,2.416-2.9,11.328,11.328,0,0,1-3.489,1.274A5.611,5.611,0,0,0,93.541,99a5.376,5.376,0,0,0-5.495,5.248,5.016,5.016,0,0,0,.143,1.2,15.852,15.852,0,0,1-11.325-5.483,5.051,5.051,0,0,0-.744,2.638,5.187,5.187,0,0,0,2.445,4.368,5.65,5.65,0,0,1-2.488-.656c0,.022,0,.044,0,.067a5.317,5.317,0,0,0,4.408,5.145,5.736,5.736,0,0,1-2.481.09,5.475,5.475,0,0,0,5.133,3.645,11.357,11.357,0,0,1-6.824,2.247A11.7,11.7,0,0,1,75,117.431a16.088,16.088,0,0,0,8.422,2.357" transform="translate(-75 -98.999)"/>
    </g>
  </g>
</svg>
